<svg width="512" height="289" viewBox="0 0 512 289" fill="none" xmlns="http://www.w3.org/2000/svg">
<path d="M373.825 215.528C362.049 215.53 352.501 205.986 352.499 194.21C352.497 182.434 362.041 172.887 373.817 172.884C385.593 172.882 395.14 182.426 395.143 194.202C395.13 205.971 385.595 215.51 373.825 215.528ZM138.175 215.528C126.399 215.53 116.852 205.986 116.849 194.21C116.847 182.434 126.391 172.887 138.167 172.884C149.943 172.882 159.49 182.426 159.493 194.202C159.481 205.972 149.945 215.512 138.175 215.528ZM381.471 87.1044L424.078 13.3084C425.255 11.2727 425.575 8.85292 424.968 6.5813C424.36 4.30967 422.876 2.37231 420.84 1.1954C418.804 0.0185235 416.385 -0.301495 414.113 0.305747C411.841 0.912988 409.904 2.39775 408.727 4.4334L365.581 79.1614C332.588 64.1034 295.534 55.7184 255.996 55.7184C216.458 55.7184 179.408 64.1154 146.415 79.1614L103.273 4.4334C102.691 3.42511 101.916 2.54133 100.993 1.8325C100.069 1.12368 99.0153 0.603708 97.8908 0.302283C96.7664 0.000857502 95.5936 -0.0761192 94.4394 0.0757508C93.2852 0.227621 92.1722 0.605359 91.164 1.1874C90.1557 1.76929 89.2719 2.5441 88.5631 3.46757C87.8543 4.39105 87.3343 5.44512 87.0329 6.56956C86.7315 7.69401 86.6545 8.86682 86.8064 10.021C86.9582 11.1752 87.336 12.2882 87.918 13.2964L130.529 87.1044C57.364 126.899 7.32 200.968 0 288.48H512C504.672 200.968 454.632 126.899 381.471 87.1044Z" fill="white"/>
</svg>
