<svg width="418" height="512" viewBox="0 0 418 512" fill="none" xmlns="http://www.w3.org/2000/svg">
<path d="M307.227 0H310.869C313.792 36.1073 300.01 63.0866 283.26 82.6242C266.825 102.027 244.32 120.845 207.921 117.99C205.492 82.3993 219.297 57.421 236.024 37.9284C251.537 19.7623 279.978 3.59724 307.227 0ZM417.415 375.822V376.834C407.185 407.815 392.594 434.367 374.788 459.008C358.533 481.378 338.613 511.483 303.045 511.483C272.311 511.483 251.897 491.721 220.399 491.181C187.079 490.641 168.756 507.706 138.291 512H127.904C105.534 508.762 87.4804 491.046 74.328 475.083C35.5452 427.914 5.57573 366.986 0 289.016V266.106C2.36069 210.304 29.4749 164.934 65.5148 142.945C84.5352 131.254 110.683 121.295 139.798 125.746C152.276 127.68 165.023 131.951 176.197 136.178C186.787 140.247 200.029 147.464 212.575 147.082C221.073 146.835 229.527 142.406 238.092 139.281C263.183 130.22 287.779 119.833 320.2 124.712C359.162 130.602 386.816 147.914 403.903 174.624C370.943 195.6 344.886 227.211 349.337 281.192C353.294 330.227 381.802 358.915 417.415 375.822Z" fill="white"/>
</svg>
