<svg width="512" height="512" viewBox="0 0 512 512" fill="none" xmlns="http://www.w3.org/2000/svg">
<path d="M141.367 116.518C133.983 109.128 122.003 109.128 114.619 116.518C87.203 143.934 73.728 182.126 77.644 221.308C78.621 231.069 86.844 238.345 96.447 238.345C97.078 238.345 97.714 238.313 98.345 238.25C108.743 237.21 116.328 227.934 115.288 217.543C112.501 189.698 122.01 162.623 141.367 143.265C148.757 135.882 148.757 123.901 141.367 116.518Z" fill="black"/>
<path d="M216.276 0C97.021 0 0 97.021 0 216.276C0 335.531 97.021 432.552 216.276 432.552C335.531 432.552 432.552 335.531 432.552 216.276C432.552 97.021 335.53 0 216.276 0ZM216.276 394.719C117.88 394.719 37.833 314.672 37.833 216.276C37.833 117.88 117.88 37.833 216.276 37.833C314.666 37.833 394.719 117.88 394.719 216.276C394.719 314.672 314.672 394.719 216.276 394.719Z" fill="black"/>
<path d="M506.458 479.71L368.999 342.252C361.609 334.862 349.641 334.862 342.251 342.252C334.861 349.636 334.861 361.616 342.251 369L479.71 506.458C481.464 508.218 483.548 509.613 485.844 510.564C488.139 511.515 490.6 512.003 493.084 512C497.927 512 502.763 510.153 506.458 506.458C513.847 499.074 513.847 487.094 506.458 479.71Z" fill="black"/>
</svg>
