<svg width="459" height="374" viewBox="0 0 459 374" fill="none" xmlns="http://www.w3.org/2000/svg">
<path d="M340.988 257.664C337.442 233.568 325.377 211.542 306.981 195.58C288.585 179.619 265.077 170.78 240.722 170.667H218.023C193.668 170.78 170.16 179.619 151.764 195.58C133.368 211.542 121.302 233.568 117.756 257.664L106.876 333.739C106.529 336.198 106.758 338.704 107.547 341.059C108.336 343.414 109.662 345.553 111.42 347.307C115.687 351.573 141.863 373.333 229.394 373.333C316.924 373.333 343.036 351.659 347.367 347.307C349.125 345.553 350.452 343.414 351.24 341.059C352.029 338.704 352.259 336.198 351.911 333.739L340.988 257.664ZM134.631 182.4C114.013 201.407 100.598 226.956 96.6577 254.72L88.7644 309.333C25.4044 308.907 6.20436 285.867 3.00436 281.173C1.76741 279.468 0.884702 277.533 0.408367 275.481C-0.0679691 273.429 -0.12827 271.302 0.231026 269.227L4.92436 242.773C7.36964 228.948 13.1126 215.917 21.6662 204.783C30.2198 193.65 41.3319 184.744 54.0603 178.819C66.7887 172.895 80.758 170.127 94.7838 170.75C108.81 171.373 122.478 175.37 134.631 182.4ZM458.471 269.227C458.83 271.302 458.77 273.429 458.294 275.481C457.817 277.533 456.935 279.468 455.698 281.173C452.498 285.867 433.298 308.907 369.938 309.333L362.044 254.72C358.104 226.956 344.689 201.407 324.071 182.4C336.224 175.37 349.892 171.373 363.918 170.75C377.944 170.127 391.913 172.895 404.642 178.819C417.37 184.744 428.482 193.65 437.036 204.783C445.59 215.917 451.332 228.948 453.778 242.773L458.471 269.227ZM138.258 135.467C132.888 143.083 125.759 149.29 117.476 153.561C109.194 157.832 100.003 160.041 90.6844 160C81.3885 160 72.2257 157.791 63.9511 153.555C55.6765 149.319 48.5269 143.178 43.0915 135.636C37.6561 128.095 34.0906 119.37 32.6887 110.181C31.2868 100.991 32.0887 91.6001 35.0283 82.7813C37.9679 73.9625 42.961 65.9684 49.5963 59.458C56.2315 52.9475 64.3189 48.1069 73.1919 45.3352C82.0649 42.5635 91.4695 41.9399 100.631 43.516C109.792 45.092 118.448 48.8225 125.884 54.4C123.745 62.7648 122.67 71.366 122.684 80C122.701 99.5658 128.087 118.752 138.258 135.467ZM426.684 101.333C426.69 109.039 425.176 116.67 422.23 123.791C419.284 130.911 414.963 137.381 409.514 142.829C404.065 148.278 397.595 152.599 390.475 155.546C383.355 158.492 375.724 160.006 368.018 160C358.699 160.041 349.508 157.832 341.226 153.561C332.943 149.29 325.814 143.083 320.444 135.467C330.615 118.752 336.001 99.5658 336.018 80C336.032 71.366 334.957 62.7648 332.818 54.4C341.534 47.8629 351.898 43.8821 362.749 42.9037C373.6 41.9253 384.509 43.9878 394.254 48.8603C403.999 53.7327 412.195 61.2225 417.923 70.4904C423.65 79.7584 426.684 90.4382 426.684 101.333Z" fill="black"/>
<path d="M229.351 160C273.534 160 309.351 124.183 309.351 80C309.351 35.8172 273.534 0 229.351 0C185.168 0 149.351 35.8172 149.351 80C149.351 124.183 185.168 160 229.351 160Z" fill="black"/>
</svg>
