<svg width="480" height="478" viewBox="0 0 480 478" fill="none" xmlns="http://www.w3.org/2000/svg">
<path fill-rule="evenodd" clip-rule="evenodd" d="M48.673 194.005L142.771 111.649C141.434 107.99 140.751 104.124 140.756 100.228C140.756 81.88 155.63 67.007 173.977 67.007C191.974 67.007 206.627 81.317 207.182 99.179L281.554 125.217C287.647 118.064 296.719 113.527 306.851 113.527C312.365 113.518 317.794 114.889 322.644 117.514L408.383 44.259C407.135 40.7128 406.5 36.9803 406.503 33.221C406.503 14.874 421.377 0 439.724 0C458.073 0 472.947 14.874 472.947 33.221C472.947 51.57 458.073 66.444 439.724 66.444C434.21 66.4525 428.781 65.082 423.932 62.457L338.193 135.712C339.441 139.258 340.076 142.991 340.073 146.75C340.073 165.097 325.199 179.971 306.85 179.971C288.854 179.971 274.202 165.661 273.647 147.8L199.275 121.762C193.181 128.915 184.11 133.452 173.977 133.452C168.594 133.46 163.29 132.153 158.526 129.645L64.428 212.001C65.7656 215.66 66.4477 219.526 66.443 223.422C66.443 241.771 51.569 256.643 33.22 256.643C14.874 256.641 0 241.769 0 223.42C0 205.071 14.874 190.199 33.221 190.199C38.6047 190.191 43.9089 191.498 48.673 194.005ZM414.452 132.051C406.191 132.051 399.452 138.789 399.452 147.051V453.179C399.452 461.441 406.191 468.179 414.452 468.179H465C473.263 468.179 480.001 461.441 480.001 453.179V147.051C480.001 138.789 473.264 132.051 465 132.051H414.452ZM281.577 254.381C273.315 254.381 266.578 261.119 266.578 269.381V456.315C266.578 464.578 273.316 471.315 281.577 471.315H332.127C340.389 471.315 347.126 464.577 347.126 456.315V269.381C347.126 261.119 340.389 254.381 332.127 254.381H281.577ZM148.704 210.464C140.441 210.464 133.703 217.202 133.703 225.464V459.451C133.703 467.713 140.44 474.451 148.704 474.451H199.252C207.513 474.451 214.252 467.713 214.252 459.451V225.464C214.252 217.202 207.513 210.464 199.252 210.464H148.704ZM15.83 339.581H66.377C74.639 339.581 81.378 346.319 81.378 354.581V462.586C81.378 470.848 74.639 477.586 66.377 477.586H15.83C7.568 477.586 0.829 470.848 0.829 462.586V354.581C0.83 346.318 7.569 339.581 15.83 339.581Z" fill="white"/>
</svg>
