<svg width="446" height="512" viewBox="0 0 446 512" fill="none" xmlns="http://www.w3.org/2000/svg">
<path d="M361.823 344.394C337.292 344.394 315.19 354.987 299.851 371.839L161.879 286.386C165.667 276.703 167.609 266.397 167.605 255.999C167.609 245.602 165.667 235.295 161.879 225.613L299.851 140.156C315.191 157.008 337.292 167.606 361.823 167.606C408.034 167.606 445.628 130.012 445.628 83.8008C445.628 37.5899 408.034 0 361.823 0C315.613 0 278.019 37.5939 278.019 83.8048C278.017 94.2018 279.96 104.508 283.745 114.191L145.777 199.645C130.437 182.793 108.336 172.195 83.8048 172.195C37.5939 172.195 0 209.793 0 255.999C0 302.209 37.5939 339.804 83.8048 339.804C108.335 339.804 130.438 329.21 145.777 312.354L283.746 397.808C279.96 407.493 278.017 417.8 278.019 428.198C278.019 474.405 315.612 511.999 361.823 511.999C408.034 511.999 445.628 474.405 445.628 428.199C445.628 381.987 408.034 344.394 361.823 344.394ZM308.577 83.8048C308.577 54.4449 332.464 30.5589 361.823 30.5589C391.182 30.5589 415.069 54.4449 415.069 83.8048C415.069 113.165 391.183 137.051 361.823 137.051C332.463 137.051 308.577 113.164 308.577 83.8048ZM83.8048 309.245C54.4409 309.245 30.5549 285.358 30.5549 255.999C30.5549 226.641 54.4409 202.754 83.8048 202.754C113.165 202.754 137.047 226.641 137.047 255.999C137.047 285.358 113.164 309.245 83.8048 309.245ZM308.577 428.195C308.577 398.835 332.464 374.948 361.823 374.948C391.182 374.948 415.069 398.835 415.069 428.194C415.069 457.554 391.183 481.44 361.823 481.44C332.463 481.44 308.577 457.554 308.577 428.194V428.195Z" fill="black"/>
</svg>
