<svg width="470" height="513" viewBox="0 0 470 513" fill="none" xmlns="http://www.w3.org/2000/svg">
<path d="M128 363.11H64C61.171 363.11 58.4579 364.234 56.4575 366.234C54.4571 368.235 53.3333 370.948 53.3333 373.777V437.777C53.3333 440.606 54.4571 443.319 56.4575 445.319C58.4579 447.319 61.171 448.443 64 448.443H128C130.829 448.443 133.542 447.319 135.542 445.319C137.543 443.319 138.667 440.606 138.667 437.777V373.777C138.667 370.948 137.543 368.235 135.542 366.234C133.542 364.234 130.829 363.11 128 363.11ZM117.333 427.11H74.6667V384.443H117.333V427.11ZM128 245.777H64C61.171 245.777 58.4579 246.9 56.4575 248.901C54.4571 250.901 53.3333 253.614 53.3333 256.443V320.443C53.3333 323.272 54.4571 325.985 56.4575 327.986C58.4579 329.986 61.171 331.11 64 331.11H128C130.829 331.11 133.542 329.986 135.542 327.986C137.543 325.985 138.667 323.272 138.667 320.443V256.443C138.667 253.614 137.543 250.901 135.542 248.901C133.542 246.9 130.829 245.777 128 245.777ZM117.333 309.777H74.6667V267.11H117.333V309.777ZM181.333 203.11H320C322.829 203.11 325.542 201.986 327.542 199.986C329.543 197.985 330.667 195.272 330.667 192.443C330.667 189.614 329.543 186.901 327.542 184.901C325.542 182.9 322.829 181.777 320 181.777H181.333C178.504 181.777 175.791 182.9 173.791 184.901C171.79 186.901 170.667 189.614 170.667 192.443C170.667 195.272 171.79 197.985 173.791 199.986C175.791 201.986 178.504 203.11 181.333 203.11ZM181.333 160.443H320C322.829 160.443 325.542 159.319 327.542 157.319C329.543 155.319 330.667 152.606 330.667 149.777C330.667 146.948 329.543 144.235 327.542 142.234C325.542 140.234 322.829 139.11 320 139.11H181.333C178.504 139.11 175.791 140.234 173.791 142.234C171.79 144.235 170.667 146.948 170.667 149.777C170.667 152.606 171.79 155.319 173.791 157.319C175.791 159.319 178.504 160.443 181.333 160.443ZM266.667 299.11H181.333C178.504 299.11 175.791 300.234 173.791 302.234C171.79 304.235 170.667 306.948 170.667 309.777C170.667 312.606 171.79 315.319 173.791 317.319C175.791 319.319 178.504 320.443 181.333 320.443H266.667C269.496 320.443 272.209 319.319 274.209 317.319C276.21 315.319 277.333 312.606 277.333 309.777C277.333 306.948 276.21 304.235 274.209 302.234C272.209 300.234 269.496 299.11 266.667 299.11ZM181.333 277.777H266.667C269.496 277.777 272.209 276.653 274.209 274.652C276.21 272.652 277.333 269.939 277.333 267.11C277.333 264.281 276.21 261.568 274.209 259.567C272.209 257.567 269.496 256.443 266.667 256.443H181.333C178.504 256.443 175.791 257.567 173.791 259.567C171.79 261.568 170.667 264.281 170.667 267.11C170.667 269.939 171.79 272.652 173.791 274.652C175.791 276.653 178.504 277.777 181.333 277.777ZM234.667 416.443H181.333C178.504 416.443 175.791 417.567 173.791 419.567C171.79 421.568 170.667 424.281 170.667 427.11C170.667 429.939 171.79 432.652 173.791 434.652C175.791 436.653 178.504 437.777 181.333 437.777H234.667C237.496 437.777 240.209 436.653 242.209 434.652C244.21 432.652 245.333 429.939 245.333 427.11C245.333 424.281 244.21 421.568 242.209 419.567C240.209 417.567 237.496 416.443 234.667 416.443ZM234.667 373.777H181.333C178.504 373.777 175.791 374.9 173.791 376.901C171.79 378.901 170.667 381.614 170.667 384.443C170.667 387.272 171.79 389.985 173.791 391.986C175.791 393.986 178.504 395.11 181.333 395.11H234.667C237.496 395.11 240.209 393.986 242.209 391.986C244.21 389.985 245.333 387.272 245.333 384.443C245.333 381.614 244.21 378.901 242.209 376.901C240.209 374.9 237.496 373.777 234.667 373.777ZM120.427 142.203L85.3333 177.403L71.5733 163.537C70.5788 162.542 69.3981 161.753 68.0986 161.215C66.7992 160.677 65.4065 160.4 64 160.4C62.5935 160.4 61.2008 160.677 59.9013 161.215C58.6019 161.753 57.4212 162.542 56.4267 163.537C55.4321 164.531 54.6432 165.712 54.1049 167.011C53.5667 168.311 53.2897 169.703 53.2897 171.11C53.2897 173.95 54.4181 176.675 56.4267 178.683C91.52 213.67 77.76 214.95 135.573 157.35C137.582 155.341 138.71 152.617 138.71 149.777C138.71 146.936 137.582 144.212 135.573 142.203C133.565 140.195 130.841 139.066 128 139.066C125.159 139.066 122.435 140.195 120.427 142.203Z" fill="black"/>
<path d="M450.667 140.603C442.088 135.684 431.911 134.359 422.358 136.917C412.805 139.475 404.653 145.708 399.68 154.257L384 181.777C384 78.2032 384.853 83.2166 381.44 79.1632C311.147 -3.18345 317.12 3.21655 314.133 1.72321C308.693 -1.15679 309.333 0.443213 10.6667 0.443213C7.83769 0.443213 5.12458 1.56702 3.12419 3.56741C1.12381 5.5678 0 8.2809 0 11.1099V501.777C0 504.606 1.12381 507.319 3.12419 509.319C5.12458 511.319 7.83769 512.443 10.6667 512.443H373.333C376.162 512.443 378.875 511.319 380.876 509.319C382.876 507.319 384 504.606 384 501.777V331.11C414.507 278.31 434.667 243.43 464.32 192.443C466.905 188.163 468.604 183.408 469.316 178.459C470.028 173.51 469.739 168.468 468.465 163.633C467.192 158.798 464.96 154.268 461.903 150.312C458.845 146.356 455.024 143.055 450.667 140.603ZM320 39.9099L350.187 75.1099H320V39.9099ZM362.667 491.11H21.3333V21.7766H298.667V85.7766C298.667 88.6055 299.79 91.3186 301.791 93.319C303.791 95.3194 306.504 96.4432 309.333 96.4432H362.667V218.363L279.68 362.15C277.867 365.243 278.613 362.15 274.667 426.15C274.579 427.604 274.791 429.06 275.287 430.429C275.784 431.798 276.556 433.05 277.555 434.11C278.555 435.169 279.76 436.012 281.098 436.588C282.436 437.164 283.877 437.459 285.333 437.457C289.92 437.457 287.893 437.457 341.013 402.897C343.787 400.977 342.293 402.897 362.347 367.483L362.667 491.11ZM298.667 376.337C307.852 377.676 316.175 382.486 321.92 389.777L296.853 406.31L298.667 376.337ZM334.933 372.283C327.376 364.45 317.764 358.905 307.2 356.283L393.707 206.95L421.44 222.95L334.933 372.283ZM445.867 180.923L432.533 204.07L405.333 188.07L418.667 164.923C421.099 162.025 424.48 160.083 428.209 159.442C431.937 158.8 435.773 159.501 439.034 161.419C442.295 163.338 444.771 166.349 446.022 169.92C447.272 173.491 447.218 177.389 445.867 180.923Z" fill="black"/>
</svg>
